# xmcd CD database file
#
# Track frame offsets:
#	150
#	18450
#	32925
#	44250
#	63675
#	78900
#	95250
#	119925
#	137625
#	154725
#	173625
#
# Disc length: 2724 seconds
#
# Revision: 0
# Processed by: cddbd v1.4PL0 Copyright (c) Steve Scherf et al.
# Submitted via: CDex 1.50
#
DISCID=920aa20b
DTITLE=Nina Simone - Little Girl Blue
DYEAR=1958
DGENRE=Blues
TTITLE0=Mood Indigo
TTITLE1=Don't smoke in bed
TTITLE2=He needs me
TTITLE3=Little girl blue
TTITLE4=Love me or leave me
TTITLE5=My baby just cares for me
TTITLE6=good bait
TTITLE7=Plain gold ring
TTITLE8=You'll never walk alone
TTITLE9=I love you porgy
TTITLE10=Central park blues
EXTD=YEAR: 1958
EXTT0=
EXTT1=
EXTT2=
EXTT3=
EXTT4=
EXTT5=
EXTT6=
EXTT7=
EXTT8=
EXTT9=
EXTT10=
PLAYORDER=
